<?xml version="1.0" encoding="utf-8"?>
<!-- Generator: Adobe Illustrator 23.0.0, SVG Export Plug-In . SVG Version: 6.00 Build 0)  -->
<svg version="1.1" id="Layer_1" xmlns="http://www.w3.org/2000/svg" xmlns:xlink="http://www.w3.org/1999/xlink" x="0px" y="0px"
	 viewBox="0 0 500 500" style="enable-background:new 0 0 500 500;" xml:space="preserve">
<path d="M380.52,215.78c-4.01-41.11-13.18-81.58-35.8-116.9c-31.59-49.32-94.06-72.58-147.89-44.92
	c-55.44,28.48-79.31,99.44-76.34,158.31c1.36,26.94,8.17,53.15,13.42,79.49c5.3,26.57,8.88,53.26,14.25,79.86
	c5.61,27.81,20.78,32.55,45.16,17.41c8.15-5.06,13.38-3.21,15.81,5.29c2.44,8.51,2.93,17.57,5.36,26.08
	c4.28,15.01,7.39,30.87,14.7,44.37c7.91,14.61,22.51,14.72,32.66,1.18c6.32-8.44,9.96-19.17,13.57-29.31
	c4.85-13.64,12.38-23.15,27.61-25.71c21.24-3.57,27.94-11.38,30.42-33.27c1.84-16.23,2.66-32.67,6.1-48.55
	c1.22-5.64,8.19-13.19,13.61-14.21c19.35-3.66,25.36-6.87,26.77-26.55C381.67,264.24,382.86,239.74,380.52,215.78z M223.24,282.87
	c-2.43,10.46-20.79,22.43-33,23.77c-9.87,1.08-26.64-10.43-31.07-20.46C149.33,263.87,145.3,239,142,226.71
	c2.27-43.82-0.27-85.51,36.94-89.47c39.09-4.16,43.45,39.02,48.01,68.55C230.82,230.9,228.99,258.1,223.24,282.87z M298.36,291.56
	c-50.74-5.83-43.59-49.89-50.16-76.32c-2.22-46.44,14.15-72.76,53.95-77.37c31.95-3.7,55.57,27.87,54.84,68.61
	C356.12,254.36,329.7,295.17,298.36,291.56z"/>
</svg>
